<?xml version="1.0" standalone="no"?>
<!DOCTYPE svg PUBLIC "-//W3C//DTD SVG 20010904//EN"
 "http://www.w3.org/TR/2001/REC-SVG-20010904/DTD/svg10.dtd">
<svg version="1.0" xmlns="http://www.w3.org/2000/svg"
 width="700.000000pt" height="700.000000pt" viewBox="0 0 700.000000 700.000000"
 preserveAspectRatio="xMidYMid meet">
<metadata>
Created by potrace 1.14, written by Peter Selinger 2001-2017
</metadata>
<g transform="translate(0.000000,700.000000) scale(0.100000,-0.100000)"
fill="#000000" stroke="none">
<path d="M5088 6646 c-1 -2 -39 -6 -83 -10 -199 -15 -379 -99 -526 -247 -133
-133 -220 -304 -248 -484 -5 -35 -9 -824 -10 -1872 -1 -1161 -5 -1831 -11
-1865 -52 -276 -256 -491 -525 -553 -195 -45 -385 -8 -553 107 -146 100 -255
272 -287 453 -2 17 -5 273 -6 570 0 297 -5 568 -10 603 -30 213 -170 442 -349
573 -302 220 -731 216 -1025 -11 -64 -50 -152 -141 -194 -203 -74 -108 -135
-283 -145 -413 -3 -32 -5 -59 -5 -60 -1 0 -30 9 -65 21 -201 68 -426 -41 -508
-245 -18 -43 -22 -76 -23 -150 0 -90 2 -99 37 -170 41 -84 65 -113 129 -159
68 -50 127 -71 210 -78 379 -29 593 421 330 694 -25 27 -57 56 -71 65 -24 16
-22 17 60 13 150 -7 246 -43 332 -123 52 -49 103 -142 113 -208 3 -21 8 -210
10 -419 3 -385 9 -456 49 -630 104 -447 394 -860 786 -1120 546 -360 1244
-407 1840 -123 505 241 874 704 1005 1260 23 100 31 148 41 258 2 25 6 795 9
1712 5 1602 6 1669 24 1727 33 105 113 187 224 228 52 19 191 26 239 11 l36
-11 -47 -24 c-131 -69 -219 -223 -212 -373 3 -74 10 -102 41 -166 76 -157 222
-242 397 -231 314 19 490 365 321 632 -91 144 -274 218 -446 180 -25 -5 -27
-3 -28 27 -1 44 -15 141 -21 151 -2 4 -7 19 -9 33 -8 44 -52 145 -95 217 -36
60 -156 193 -214 237 -118 90 -288 155 -430 166 -33 3 -65 7 -72 9 -6 2 -13 2
-15 1z"/>
</g>
</svg>
