<?xml version="1.0" encoding="UTF-8" standalone="no"?>
<!DOCTYPE svg PUBLIC "-//W3C//DTD SVG 1.1//EN" "http://www.w3.org/Graphics/SVG/1.1/DTD/svg11.dtd">
<svg width="100%" height="100%" viewBox="0 0 2048 2048" version="1.1" xmlns="http://www.w3.org/2000/svg" xmlns:xlink="http://www.w3.org/1999/xlink" xml:space="preserve" xmlns:serif="http://www.serif.com/" style="fill-rule:evenodd;clip-rule:evenodd;stroke-linejoin:round;stroke-miterlimit:2;">
    <g transform="matrix(1.20683,0,0,1.20683,-1093.41,-405.867)">
        <g>
            <g transform="matrix(590.704,-590.704,-590.704,-590.704,1660.22,748.821)">
                <path d="M-0.834,-0.014C-0.834,-0.016 -0.833,-0.017 -0.833,-0.018C-0.822,-0.027 -0.782,-0.065 -0.774,-0.106C-0.784,-0.058 -0.828,-0.021 -0.828,-0.021C-0.72,0.03 -0.634,0.046 -0.514,-0.048C-0.406,-0.133 -0.385,-0.27 -0.48,-0.367C-0.385,-0.269 -0.385,-0.113 -0.482,-0.016C-0.579,0.081 -0.736,0.082 -0.834,-0.014ZM-0.48,-0.367L-0.48,-0.367ZM-0.481,-0.368C-0.48,-0.368 -0.48,-0.367 -0.48,-0.367C-0.48,-0.367 -0.48,-0.368 -0.481,-0.368ZM-0.481,-0.368L-0.481,-0.368ZM-0.481,-0.368L-0.481,-0.368ZM-0.481,-0.369L-0.481,-0.368L-0.481,-0.369ZM-0.482,-0.369L-0.481,-0.369L-0.482,-0.369ZM-0.482,-0.369L-0.482,-0.369Z" style="fill:white;fill-rule:nonzero;"/>
            </g>
            <g transform="matrix(590.704,-590.704,-590.704,-590.704,1792.37,880.969)">
                <path d="M0.329,0.096C0.427,0.192 0.563,0.168 0.644,0.057C0.707,-0.03 0.723,-0.114 0.678,-0.252C0.678,-0.252 0.657,-0.202 0.597,-0.187C0.645,-0.199 0.67,-0.238 0.678,-0.253C0.68,-0.254 0.682,-0.255 0.684,-0.256C0.779,-0.158 0.778,-0.002 0.681,0.094C0.584,0.192 0.427,0.192 0.329,0.096ZM0.329,0.096L0.329,0.096ZM0.329,0.095L0.329,0.096L0.329,0.095ZM0.328,0.095L0.329,0.095L0.328,0.095ZM0.328,0.095L0.328,0.095ZM0.328,0.094L0.328,0.095L0.328,0.094Z" style="fill:white;fill-rule:nonzero;"/>
            </g>
            <g transform="matrix(590.704,-590.704,-590.704,-590.704,2594.4,1683)">
                <path d="M-0.674,0.736L-0.674,0.735C-0.75,0.811 -0.752,0.933 -0.682,1.012C-0.71,0.982 -0.803,0.882 -0.843,0.829C-0.976,0.651 -0.917,0.497 -0.917,0.497C-0.977,0.557 -1.019,0.626 -1.045,0.7C-1.019,0.624 -0.976,0.554 -0.916,0.494C-0.705,0.282 -0.362,0.282 -0.151,0.494L0.091,0.736C-0.12,0.524 -0.463,0.524 -0.674,0.736Z" style="fill:white;fill-rule:nonzero;"/>
            </g>
            <g transform="matrix(1058.74,1058.74,1058.74,-1058.74,1075.73,965.311)">
                <path d="M0.492,-0.002C0.489,0.001 0.487,0.002 0.487,0.002C0.488,0.001 0.49,-0.001 0.492,-0.002Z" style="fill:white;fill-rule:nonzero;"/>
            </g>
            <g transform="matrix(1058.74,1058.74,1058.74,-1058.74,866.716,1174.32)">
                <path d="M0.666,-0.007C0.56,-0.044 0.438,-0.02 0.354,0.065C0.439,-0.02 0.56,-0.044 0.666,-0.007Z" style="fill:white;fill-rule:nonzero;"/>
            </g>
            <g transform="matrix(590.704,-590.704,-590.704,-590.704,2103.85,1192.44)">
                <path d="M-0.514,0.703C-0.634,0.797 -0.72,0.781 -0.828,0.73C-0.828,0.73 -0.784,0.693 -0.774,0.645C-0.761,0.585 -0.8,0.544 -0.8,0.544L-0.916,0.429C-1.067,0.277 -1.11,0.059 -1.045,-0.131C-1.019,-0.205 -0.977,-0.274 -0.917,-0.333C-0.917,-0.333 -0.976,-0.179 -0.843,-0.002C-0.803,0.052 -0.71,0.151 -0.682,0.181C-0.679,0.184 -0.677,0.187 -0.674,0.19L-0.482,0.382C-0.393,0.471 -0.403,0.595 -0.489,0.68C-0.497,0.688 -0.505,0.696 -0.514,0.703Z" style="fill:white;fill-rule:nonzero;"/>
            </g>
            <g transform="matrix(1058.74,1058.74,1058.74,-1058.74,1029.63,1011.41)">
                <path d="M0.201,0.135C0.148,0.068 0.157,0.02 0.185,-0.04C0.185,-0.04 0.206,-0.016 0.233,-0.01C0.267,-0.003 0.289,-0.025 0.289,-0.025L0.354,-0.089C0.438,-0.174 0.56,-0.198 0.666,-0.161C0.707,-0.147 0.746,-0.123 0.779,-0.09C0.779,-0.09 0.693,-0.123 0.594,-0.048C0.564,-0.026 0.508,0.026 0.492,0.041C0.49,0.043 0.488,0.044 0.487,0.046L0.38,0.153C0.33,0.203 0.261,0.197 0.213,0.149C0.209,0.145 0.205,0.14 0.201,0.135Z" style="fill:white;fill-rule:nonzero;"/>
            </g>
            <g transform="matrix(590.704,-590.704,-590.704,-590.704,2429.16,1517.76)">
                <path d="M-0.618,0.416C-0.634,0.424 -0.649,0.433 -0.662,0.445L-0.674,0.456C-0.463,0.244 -0.12,0.244 0.091,0.456L0.405,0.77C0.21,0.575 -0.365,0.292 -0.618,0.416Z" style="fill:white;fill-rule:nonzero;"/>
            </g>
            <g transform="matrix(-409.01,409.01,409.01,409.01,2223.16,1155.9)">
                <path d="M1.083,0.093C1.106,0.082 1.127,0.068 1.147,0.051C1.148,0.05 1.15,0.049 1.151,0.048L1.164,0.036C0.859,0.341 0.364,0.341 0.059,0.036L-0.395,-0.417C-0.113,-0.136 0.718,0.273 1.083,0.093Z" style="fill:white;fill-rule:nonzero;"/>
            </g>
            <g transform="matrix(0,-1845.28,-1845.28,0,1796.49,2095.96)">
                <path d="M0.244,0.012C0.244,0.004 0.246,-0.004 0.249,-0.012C0.246,-0.004 0.244,0.004 0.244,0.012Z" style="fill:white;fill-rule:nonzero;"/>
            </g>
            <g transform="matrix(590.704,-590.704,-590.704,-590.704,2111.9,1200.5)">
                <path d="M0.328,0.635L-0.389,-0.081C-0.451,-0.143 -0.543,-0.156 -0.618,-0.121C-0.365,-0.245 0.21,0.037 0.405,0.233L0.492,0.32C0.492,0.32 0.534,0.37 0.597,0.354C0.657,0.339 0.678,0.289 0.678,0.289C0.723,0.427 0.707,0.511 0.644,0.598C0.635,0.61 0.625,0.621 0.615,0.631C0.533,0.713 0.415,0.722 0.328,0.635Z" style="fill:white;fill-rule:nonzero;"/>
            </g>
            <g transform="matrix(-409.01,409.01,409.01,409.01,2069.08,1001.81)">
                <path d="M-0.283,-0.622L0.752,0.413C0.842,0.502 0.975,0.521 1.083,0.47C0.718,0.649 -0.113,0.241 -0.395,-0.041L-0.521,-0.167C-0.521,-0.167 -0.581,-0.24 -0.672,-0.216C-0.758,-0.194 -0.788,-0.122 -0.788,-0.122C-0.854,-0.321 -0.83,-0.442 -0.739,-0.568C-0.726,-0.586 -0.712,-0.602 -0.698,-0.616C-0.579,-0.735 -0.408,-0.748 -0.283,-0.622Z" style="fill:white;fill-rule:nonzero;"/>
            </g>
            <g transform="matrix(0,-1845.28,-1845.28,0,2079.7,2095.96)">
                <path d="M0.794,0.081L0.335,0.081C0.295,0.081 0.261,0.106 0.249,0.142C0.29,0.021 0.564,-0.073 0.689,-0.073L0.745,-0.073C0.745,-0.073 0.775,-0.07 0.79,-0.095C0.804,-0.119 0.795,-0.142 0.795,-0.142C0.853,-0.112 0.875,-0.08 0.883,-0.032C0.884,-0.025 0.884,-0.019 0.884,-0.012C0.884,0.04 0.849,0.081 0.794,0.081Z" style="fill:white;fill-rule:nonzero;"/>
            </g>
            <g transform="matrix(590.704,-590.704,-590.704,-590.704,2501.12,1589.71)">
                <path d="M-0.664,0.568C-0.663,0.568 -0.663,0.567 -0.662,0.567C-0.663,0.567 -0.663,0.568 -0.664,0.568ZM-0.665,0.569C-0.664,0.569 -0.664,0.568 -0.664,0.568C-0.664,0.568 -0.664,0.569 -0.665,0.569Z" style="fill:white;fill-rule:nonzero;"/>
            </g>
            <g transform="matrix(-409.01,409.01,409.01,409.01,2243.53,1176.27)">
                <path d="M1.149,0C1.148,0.001 1.148,0.001 1.147,0.002C1.148,0.001 1.148,0.001 1.149,0ZM1.151,-0.002C1.15,-0.001 1.149,-0 1.149,0C1.149,-0 1.15,-0.001 1.151,-0.002Z" style="fill:white;fill-rule:nonzero;"/>
            </g>
            <g transform="matrix(0.521929,-0.521929,-0.521929,-0.521929,1762.78,1646.64)">
                <path d="M-0.891,0.868L-1.039,0.967C-0.368,0.297 0.358,-0.302 1.037,-0.965C0.398,-0.342 -0.265,0.241 -0.891,0.868Z" style="fill:white;fill-rule:nonzero;"/>
            </g>
            <g transform="matrix(-409.01,409.01,409.01,409.01,2238.34,1171.08)">
                <path d="M1.164,-0.001C1.163,-0 1.162,0 1.161,0.001C1.162,0 1.163,-0 1.164,-0.001Z" style="fill:white;fill-rule:nonzero;"/>
            </g>
            <g transform="matrix(4.16667,0,0,4.16667,2377.79,824.052)">
                <path d="M0,-48.175C-2.512,-48.175 -4.934,-47.789 -7.211,-47.076C-7.652,-46.937 -8.087,-46.784 -8.516,-46.621C-17.616,-43.18 -24.088,-34.391 -24.088,-24.087C-24.088,-10.784 -13.303,0 0,0C13.303,0 24.088,-10.784 24.088,-24.087C24.088,-37.391 13.303,-48.175 0,-48.175" style="fill:white;fill-rule:nonzero;"/>
            </g>
            <g transform="matrix(4.16667,0,0,4.16667,1130.08,1439.73)">
                <path d="M0,-48.175C-13.303,-48.175 -24.088,-37.391 -24.088,-24.087C-24.088,-10.784 -13.303,0 0,0C13.303,0 24.088,-10.784 24.088,-24.087C24.088,-33.151 19.079,-41.042 11.681,-45.153C11.458,-45.277 11.232,-45.395 11.005,-45.512C7.706,-47.21 3.966,-48.175 0,-48.175" style="fill:white;fill-rule:nonzero;"/>
            </g>
        </g>
    </g>
</svg>
